<svg width="24" height="25" viewBox="0 0 24 25" fill="none" xmlns="http://www.w3.org/2000/svg">
<path d="M17.4437 4.12505C17.4437 5.30043 16.467 6.25004 15.2582 6.25004H8.70187C7.49304 6.25004 6.51642 5.30043 6.51642 4.12505C6.51642 2.94966 7.49304 2.00005 8.70187 2.00005H15.2582C16.467 2.00005 17.4437 2.94966 17.4437 4.12505ZM21.8145 10.375C23.0234 10.375 24 11.3246 24 12.5C24 13.6754 23.0234 14.625 21.8145 14.625H8.70187C7.49304 14.625 6.51642 13.6754 6.51642 12.5C6.51642 11.3246 7.49304 10.375 8.70187 10.375H21.8145ZM13.0728 20.875C13.0728 22.0504 12.0961 23 10.8873 23H8.70187C7.49304 23 6.51642 22.0504 6.51642 20.875C6.51642 19.6996 7.49304 18.75 8.70187 18.75H10.8873C12.0961 18.75 13.0728 19.6996 13.0728 20.875Z" fill="currentColor"/>
<path d="M2.1855 23C3.39432 23 4.37099 22.0504 4.37099 20.875C4.37099 19.6996 3.39432 18.75 2.1855 18.75C0.97667 18.75 4.7639e-05 19.6996 4.7639e-05 20.875C4.7639e-05 22.0504 0.97667 23 2.1855 23Z" fill="currentColor"/>
<path d="M2.18545 14.625C3.39427 14.625 4.37094 13.6754 4.37094 12.5C4.37094 11.3246 3.39427 10.375 2.18545 10.375C0.976622 10.375 0 11.3246 0 12.5C0 13.6754 0.976622 14.625 2.18545 14.625Z" fill="currentColor"/>
<path d="M2.1855 6.25002C3.39432 6.25002 4.37099 5.30041 4.37099 4.12502C4.37099 2.94963 3.39432 2.00002 2.1855 2.00002C0.97667 2.00002 4.7639e-05 2.94963 4.7639e-05 4.12502C4.7639e-05 5.30041 0.97667 6.25002 2.1855 6.25002Z" fill="currentColor"/>
</svg>
