<svg width="24" height="25" viewBox="0 0 24 25" fill="white" xmlns="http://www.w3.org/2000/svg">
<path d="M12 13.9375C13.7156 13.9375 15.361 13.256 16.5741 12.0428C17.7872 10.8297 18.4688 9.18437 18.4688 7.46875C18.4688 5.75313 17.7872 4.10778 16.5741 2.89465C15.361 1.68153 13.7156 1 12 1C10.2844 1 8.63903 1.68153 7.4259 2.89465C6.21278 4.10778 5.53125 5.75313 5.53125 7.46875C5.53125 9.18437 6.21278 10.8297 7.4259 12.0428C8.63903 13.256 10.2844 13.9375 12 13.9375ZM7.7459 15.375C3.74336 15.375 0.5 18.6184 0.5 22.6209C0.5 23.3846 1.11992 24 1.8791 24H22.1209C22.8846 24 23.5 23.3801 23.5 22.6209C23.5 18.6184 20.2566 15.375 16.2541 15.375H7.7459Z" fill="currentColor"/>
</svg>
