<svg width="100%" height="100%" viewBox="0 0 16 16" fill="none" xmlns="http://www.w3.org/2000/svg">
<path d="M13.2769 14.1807H2.72307C1.89038 14.1807 1.21538 13.5057 1.21538 12.673V5.88842C1.21538 5.05574 1.89038 4.38074 2.72307 4.38074H13.2769C14.1096 4.38074 14.7846 5.05574 14.7846 5.88842V12.673C14.7846 13.5057 14.1096 14.1807 13.2769 14.1807Z" stroke="currentColor"/>
<path d="M11.3923 9.65768C11.1842 9.65768 11.0154 9.48887 11.0154 9.28075C11.0154 9.07262 11.1842 8.90381 11.3923 8.90381C11.6004 8.90381 11.7693 9.07262 11.7693 9.28075C11.7693 9.48887 11.6004 9.65768 11.3923 9.65768Z" fill="currentColor" stroke="currentColor" stroke-linecap="round" stroke-linejoin="round"/>
<path d="M12.5231 4.38076V3.32782C12.5231 2.3372 11.5841 1.61576 10.6269 1.87101L2.33463 4.08232C1.67463 4.25832 1.21538 4.85601 1.21538 5.53907V5.88845" stroke="currentColor"/>
</svg>
